# xmcd
# 
# Track frame offsets:
#     183
#     13838
#     27225
#     42383
#     66468
#     79698
#     97048
#     110518
#     122865
#     135408
#     150080
#     162373
#     186260
#     198578
#     212160
#     225540
#     240583
#     254435
#     267710
#     281015
# 
# Disc length: 3975
# 
# Revision: 4
# Processed by: cddbd v1.5.2PL0 Copyright (c) Steve Scherf et al.
# Submitted via: fre:ac v1.1beta1pre5
# 
DISCID=230f8514
DTITLE=John Lee Hooker - One Scotch, One Bourbon, One Beer
DYEAR=1995
DGENRE=Blues
TTITLE0=One Bourbon, One Scotch, One Beer
TTITLE1=It's My Own Fault
TTITLE2=I'll Never Trust Your Love Again
TTITLE3=The Waterfront
TTITLE4=Down at the Landing
TTITLE5=Peace Lovin' Man
TTITLE6=Love Blues
TTITLE7=High Priced Woman
TTITLE8=Leave My Wife Alone
TTITLE9=Sugar Mama
TTITLE10=In the Mood
TTITLE11=I Put My Trust in You
TTITLE12=Walkin' the Boogie
TTITLE13=Stella Mae
TTITLE14=Ground Hog Blues
TTITLE15=Ramblin' by Myself
TTITLE16=Louise
TTITLE17=Women and Money
TTITLE18=Union Station Blues
TTITLE19=You Know I Know
EXTD=
EXTT0=
EXTT1=
EXTT2=
EXTT3=
EXTT4=
EXTT5=
EXTT6=
EXTT7=
EXTT8=
EXTT9=
EXTT10=
EXTT11=
EXTT12=
EXTT13=
EXTT14=
EXTT15=
EXTT16=
EXTT17=
EXTT18=
EXTT19=
PLAYORDER=
